<svg width="120" height="24" viewBox="0 0 120 24" fill="none" xmlns="http://www.w3.org/2000/svg">
<path d="M0 0.418792H5.04391L14.2964 15.8819H14.5535L14.2964 11.4362V0.418792H18.6014V23.4846H14.0394L4.27287 7.15168H4.01585L4.27287 11.5973V23.4846H0V0.418792Z" fill="#333647"/>
<path d="M32.7659 21.4228H32.5088C32.0162 22.2174 31.3523 22.851 30.517 23.3235C29.6817 23.7745 28.7286 24 27.6577 24C25.6658 24 24.1773 23.3879 23.1921 22.1638C22.2283 20.9396 21.7464 19.3074 21.7464 17.2671V7.69933H25.955V16.7517C25.955 17.8899 26.2013 18.7383 26.6939 19.2966C27.2079 19.8336 27.9468 20.102 28.9106 20.102C29.4889 20.102 29.9922 19.9839 30.4206 19.7477C30.8704 19.4899 31.2452 19.157 31.545 18.749C31.8663 18.3195 32.1019 17.8255 32.2518 17.2671C32.4232 16.6872 32.5088 16.0752 32.5088 15.4309V7.69933H36.7175V23.4846H32.7659V21.4228Z" fill="#333647"/>
<path d="M43.7603 9.76107H44.0173C44.5099 8.96644 45.1738 8.34362 46.0091 7.89262C46.8444 7.42013 47.7975 7.18389 48.8684 7.18389C49.8536 7.18389 50.7211 7.34497 51.4707 7.66711C52.2203 7.98926 52.8307 8.45101 53.3019 9.05235C53.7945 9.63221 54.1586 10.3409 54.3942 11.1785C54.6513 11.9946 54.7798 12.9074 54.7798 13.9168V23.4846H50.5711V14.4322C50.5711 13.294 50.3141 12.4564 49.8001 11.9195C49.3075 11.3611 48.5793 11.0819 47.6155 11.0819C47.0372 11.0819 46.5232 11.2107 46.0734 11.4685C45.645 11.7047 45.2702 12.0376 44.949 12.4671C44.6491 12.8752 44.4135 13.3691 44.2422 13.949C44.0922 14.5074 44.0173 15.1087 44.0173 15.753V23.4846H39.8087V7.69933H43.7603V9.76107Z" fill="#333647"/>
<path d="M58.6616 11.3074H55.8987V7.69933H58.6616V2.86711H62.8702V7.69933H66.7254V11.3074H62.8702V17.4282C62.8702 17.7933 62.9023 18.1369 62.9666 18.4591C63.0523 18.7597 63.2022 19.0175 63.4164 19.2322C63.7162 19.5758 64.1446 19.7477 64.7014 19.7477C65.0655 19.7477 65.3547 19.7154 65.5689 19.651C65.783 19.5651 65.9865 19.4577 66.1793 19.3289L67.368 23.0336C66.8754 23.2698 66.3399 23.4416 65.7616 23.549C65.2048 23.6779 64.5836 23.7423 63.8983 23.7423C63.1058 23.7423 62.3883 23.6242 61.7458 23.3879C61.1246 23.1302 60.5999 22.7866 60.1716 22.357C59.1649 21.3906 58.6616 20.0161 58.6616 18.2336V11.3074Z" fill="#333647"/>
<path d="M71.8095 5.41208C71.4454 5.41208 71.092 5.34765 70.7493 5.21879C70.428 5.06846 70.1389 4.87517 69.8819 4.63893C69.6463 4.38121 69.4535 4.09128 69.3036 3.76913C69.1751 3.44698 69.1108 3.09262 69.1108 2.70604C69.1108 2.31946 69.1751 1.9651 69.3036 1.64295C69.4535 1.32081 69.6463 1.04161 69.8819 0.805368C70.1389 0.547651 70.428 0.354362 70.7493 0.225502C71.092 0.0751675 71.4454 0 71.8095 0C72.5591 0 73.2017 0.268456 73.7371 0.805368C74.2726 1.32081 74.5403 1.95436 74.5403 2.70604C74.5403 3.45772 74.2726 4.10201 73.7371 4.63893C73.2017 5.15436 72.5591 5.41208 71.8095 5.41208ZM69.7213 23.4846V7.69933H73.9299V23.4846H69.7213Z" fill="#333647"/>
<path d="M88.1553 21.4228H87.8983C87.4056 22.2174 86.7417 22.851 85.9064 23.3235C85.0711 23.7745 84.118 24 83.0471 24C81.0553 24 79.5667 23.3879 78.5815 22.1638C77.6177 20.9396 77.1358 19.3074 77.1358 17.2671V7.69933H81.3444V16.7517C81.3444 17.8899 81.5907 18.7383 82.0833 19.2966C82.5973 19.8336 83.3363 20.102 84.3001 20.102C84.8783 20.102 85.3817 19.9839 85.81 19.7477C86.2598 19.4899 86.6346 19.157 86.9345 18.749C87.2557 18.3195 87.4913 17.8255 87.6413 17.2671C87.8126 16.6872 87.8983 16.0752 87.8983 15.4309V7.69933H92.1069V23.4846H88.1553V21.4228Z" fill="#333647"/>
<path d="M95.1981 7.69933H99.1497V9.76107H99.4067C99.8993 8.98792 100.563 8.3651 101.399 7.89262C102.255 7.42013 103.198 7.18389 104.226 7.18389C105.425 7.18389 106.432 7.46309 107.246 8.02148C108.06 8.57987 108.638 9.26711 108.98 10.0832C109.473 9.28859 110.169 8.61208 111.069 8.05369C111.968 7.47382 113.061 7.18389 114.346 7.18389C115.309 7.18389 116.145 7.34497 116.852 7.66711C117.558 7.96778 118.137 8.39732 118.586 8.9557C119.058 9.51409 119.411 10.1906 119.647 10.9852C119.882 11.7584 120 12.6067 120 13.5302V23.4846H115.791V14.3034C115.791 12.1557 114.913 11.0819 113.157 11.0819C112.6 11.0819 112.108 11.2107 111.679 11.4685C111.251 11.7047 110.887 12.0376 110.587 12.4671C110.308 12.8752 110.084 13.3691 109.912 13.949C109.762 14.5289 109.687 15.1517 109.687 15.8174V23.4846H105.479V14.3034C105.479 12.1557 104.558 11.0819 102.716 11.0819C102.18 11.0819 101.709 11.2107 101.302 11.4685C100.895 11.7047 100.553 12.0376 100.274 12.4671C99.9957 12.8752 99.7815 13.3691 99.6316 13.949C99.4817 14.5289 99.4067 15.1517 99.4067 15.8174V23.4846H95.1981V7.69933Z" fill="#333647"/>
</svg>
